<mxfile host="app.diagrams.net" modified="2024-03-04T07:17:44.241Z" agent="Mozilla/5.0 (Windows NT 10.0; Win64; x64) AppleWebKit/537.36 (KHTML, like Gecko) Chrome/122.0.0.0 Safari/537.36" etag="nNEVwyKYOR8ZCH5AHo48" version="22.1.21" type="device">
  <diagram name="Seite-1" id="9uTi92iUf-PLQonkblNb">
    <mxGraphModel dx="1050" dy="572" grid="1" gridSize="10" guides="1" tooltips="1" connect="1" arrows="1" fold="1" page="1" pageScale="1" pageWidth="827" pageHeight="1169" math="0" shadow="0">
      <root>
        <mxCell id="0" />
        <mxCell id="1" parent="0" />
        <mxCell id="Otfbm-KynVgT4QaGFVcP-21" value="" style="shape=image;html=1;verticalAlign=top;verticalLabelPosition=bottom;labelBackgroundColor=#ffffff;imageAspect=0;aspect=fixed;image=https://cdn4.iconfinder.com/data/icons/success-filloutline/64/website-seo_and_web-internet-technology-application-128.png" vertex="1" parent="1">
          <mxGeometry x="230" y="120" width="440" height="440" as="geometry" />
        </mxCell>
        <mxCell id="Otfbm-KynVgT4QaGFVcP-25" value="DOM" style="rounded=0;whiteSpace=wrap;html=1;fillColor=#d5e8d4;strokeColor=#82b366;" vertex="1" parent="1">
          <mxGeometry x="520" y="220" width="120" height="60" as="geometry" />
        </mxCell>
        <mxCell id="Otfbm-KynVgT4QaGFVcP-26" value="" style="group" vertex="1" connectable="0" parent="1">
          <mxGeometry x="270" y="180" width="210" height="140" as="geometry" />
        </mxCell>
        <mxCell id="Otfbm-KynVgT4QaGFVcP-16" value="" style="rounded=0;whiteSpace=wrap;html=1;align=center;" vertex="1" parent="Otfbm-KynVgT4QaGFVcP-26">
          <mxGeometry width="210" height="140" as="geometry" />
        </mxCell>
        <mxCell id="Otfbm-KynVgT4QaGFVcP-17" value="ASP.NET Core" style="text;html=1;align=center;verticalAlign=middle;resizable=0;points=[];autosize=1;strokeColor=none;fillColor=none;" vertex="1" parent="Otfbm-KynVgT4QaGFVcP-26">
          <mxGeometry x="57.27272727272727" width="100" height="30" as="geometry" />
        </mxCell>
        <mxCell id="Otfbm-KynVgT4QaGFVcP-18" value="&lt;font style=&quot;font-size: 15px;&quot;&gt;Blazor&lt;br&gt;&lt;br&gt;&lt;b&gt;Razor Components&lt;br&gt;.NET Code&lt;/b&gt;&lt;/font&gt;" style="rounded=1;whiteSpace=wrap;html=1;" vertex="1" parent="Otfbm-KynVgT4QaGFVcP-26">
          <mxGeometry x="9.545454545454547" y="42" width="190.9090909090909" height="88.66666666666667" as="geometry" />
        </mxCell>
        <mxCell id="Otfbm-KynVgT4QaGFVcP-27" value="" style="endArrow=classic;html=1;rounded=0;entryX=0;entryY=0.25;entryDx=0;entryDy=0;exitX=1.004;exitY=0.391;exitDx=0;exitDy=0;exitPerimeter=0;" edge="1" parent="1" source="Otfbm-KynVgT4QaGFVcP-16" target="Otfbm-KynVgT4QaGFVcP-25">
          <mxGeometry width="50" height="50" relative="1" as="geometry">
            <mxPoint x="490" y="235" as="sourcePoint" />
            <mxPoint x="550" y="160" as="targetPoint" />
          </mxGeometry>
        </mxCell>
        <mxCell id="Otfbm-KynVgT4QaGFVcP-28" value="" style="endArrow=classic;html=1;rounded=0;entryX=0.99;entryY=0.611;entryDx=0;entryDy=0;exitX=0;exitY=0.75;exitDx=0;exitDy=0;entryPerimeter=0;" edge="1" parent="1" source="Otfbm-KynVgT4QaGFVcP-25" target="Otfbm-KynVgT4QaGFVcP-16">
          <mxGeometry width="50" height="50" relative="1" as="geometry">
            <mxPoint x="500" y="228" as="sourcePoint" />
            <mxPoint x="520" y="260" as="targetPoint" />
          </mxGeometry>
        </mxCell>
      </root>
    </mxGraphModel>
  </diagram>
</mxfile>
